<mxfile host="app.diagrams.net" modified="2024-07-22T19:33:28.731Z" agent="Mozilla/5.0 (Windows NT 10.0; Win64; x64) AppleWebKit/537.36 (KHTML, like Gecko) Chrome/126.0.0.0 Safari/537.36" version="24.7.3" etag="P4g2oqaiJJg_4J9Qwb6w" type="github">
  <diagram name="PÃ¡gina-1" id="4HfxvYXfkbRbSwaon2g4">
    <mxGraphModel>
      <root>
        <mxCell id="0" />
        <mxCell id="1" parent="0" />
      </root>
    </mxGraphModel>
  </diagram>
</mxfile>
